<?xml version="1.0" encoding="UTF-8"?>
<svg width="30px" height="25px" viewBox="0 0 30 25" version="1.1" xmlns="http://www.w3.org/2000/svg" xmlns:xlink="http://www.w3.org/1999/xlink">
    <!-- Generator: Sketch 64 (93537) - https://sketch.com -->
    <title>twitter</title>
    <desc>Created with Sketch.</desc>
    <g id="Page-1" stroke="none" stroke-width="1" fill="none" fill-rule="evenodd" opacity="0.800000012">
        <g id="Pagina-Inicio-guay-menu-amarillo" transform="translate(-1153.000000, -1954.000000)" fill="#2E2E2E" fill-rule="nonzero">
            <g id="twitter" transform="translate(1153.000000, 1954.000000)">
                <path d="M29.4621898,2.93284672 C28.7970073,3.22781022 28.1064964,3.46051095 27.3979562,3.6289781 C28.1786861,2.88708029 28.7656934,1.95912409 29.0968613,0.923357664 L29.0968613,0.923357664 C29.1913869,0.627664234 28.870219,0.371970803 28.6032117,0.530291971 L28.6032117,0.530291971 C27.6175182,1.1149635 26.5557664,1.55357664 25.4473723,1.83408759 C25.3830657,1.85036496 25.3167153,1.85861314 25.250146,1.85861314 C25.0482482,1.85861314 24.8519708,1.78364964 24.6975912,1.64759124 C23.5183212,0.608248175 22.0016058,0.0358394161 20.4269343,0.0358394161 C19.7455474,0.0358394161 19.0575912,0.142043796 18.3821168,0.351532847 C16.2892701,1.00065693 14.6744526,2.7270073 14.1678102,4.85693431 C13.9777372,5.65583942 13.9262774,6.45547445 14.0147445,7.23357664 C14.0248905,7.3229927 13.9826277,7.38540146 13.9565693,7.41467153 C13.9108029,7.4659854 13.8459124,7.49540146 13.7785401,7.49540146 C13.7710219,7.49540146 13.7632847,7.4950365 13.7556204,7.49430657 C9.17445255,7.06868613 5.04335766,4.86160584 2.12328467,1.27970803 L2.12328467,1.27970803 C1.97437956,1.0970073 1.68883212,1.11941606 1.57014599,1.3229927 L1.57014599,1.3229927 C0.998321168,2.3040146 0.696131387,3.42605839 0.696131387,4.56781022 C0.696131387,6.31759124 1.39912409,7.96656934 2.62021898,9.16868613 C2.10671533,9.04693431 1.60970803,8.85518248 1.1480292,8.59875912 L1.1480292,8.59875912 C0.924671533,8.47467153 0.649854015,8.63416058 0.646715328,8.88963504 L0.646715328,8.88963504 C0.614744526,11.4890511 2.13664234,13.8020438 4.41649635,14.8435766 C4.37058394,14.8446715 4.32467153,14.8451825 4.27868613,14.8451825 C3.91729927,14.8451825 3.55138686,14.810292 3.19124088,14.7414599 L3.19124088,14.7414599 C2.93970803,14.6934307 2.72839416,14.9320438 2.80649635,15.1759124 L2.80649635,15.1759124 C3.54649635,17.4862044 5.53569343,19.1891241 7.91613139,19.5757664 C5.94051095,20.9019708 3.63985401,21.6015328 1.24532847,21.6015328 L0.498832117,21.6010949 C0.268832117,21.6010949 0.0743065693,21.7510219 0.0156934307,21.9737956 C-0.0420437956,22.1932117 0.0643065693,22.4246715 0.260437956,22.5387591 C2.95868613,24.1090511 6.03642336,24.9389781 9.16226277,24.9389781 C11.8983942,24.9389781 14.4578102,24.3959854 16.7694891,23.3251825 C18.8886861,22.3435036 20.7613869,20.940219 22.3355474,19.1543066 C23.8019708,17.4906569 24.9486861,15.570146 25.7437226,13.4462044 C26.5016058,11.4216058 26.9021898,9.26131387 26.9021898,7.19883212 L26.9021898,7.10058394 C26.9021168,6.76941606 27.0518978,6.45781022 27.3132117,6.24569343 C28.3048175,5.44058394 29.1683212,4.49284672 29.879635,3.42883212 L29.879635,3.42883212 C30.0674453,3.14788321 29.7712409,2.79576642 29.4621898,2.93284672 L29.4621898,2.93284672 Z" id="Path"></path>
            </g>
        </g>
    </g>
</svg>